<svg xmlns="http://www.w3.org/2000/svg" width="23" height="23" viewBox="0 0 23 23">
  <path id="reddit" d="M16.973,21.8a1.148,1.148,0,1,1,1.141-1.141A1.149,1.149,0,0,1,16.973,21.8ZM31,19.5A11.5,11.5,0,1,1,19.5,8,11.5,11.5,0,0,1,31,19.5Zm-6.135-1.91a1.552,1.552,0,0,0-1.1.464,7.5,7.5,0,0,0-3.993-1.233l.807-3.631,2.569.58a1.143,1.143,0,0,0,1.141,1.141,1.155,1.155,0,1,0-1.025-1.669l-2.838-.631a.274.274,0,0,0-.32.2l-.886,4.006a7.564,7.564,0,0,0-3.965,1.243A1.535,1.535,0,1,0,13.467,20.5a3.347,3.347,0,0,0-.079.719c0,2.439,2.745,4.415,6.121,4.415s6.135-1.975,6.135-4.415a2.962,2.962,0,0,0-.088-.733A1.53,1.53,0,0,0,24.865,17.59ZM21.67,22.978c-.844.844-3.529.83-4.34,0a.28.28,0,0,0-.385,0,.272.272,0,0,0,0,.4c1.057,1.057,4.048,1.057,5.11,0a.272.272,0,0,0,0-.4A.28.28,0,0,0,21.67,22.978Zm.357-3.478a1.148,1.148,0,1,0,1.155,1.155A1.146,1.146,0,0,0,22.027,19.5Z" transform="translate(-8 -8)" fill="#fff"/>
</svg>
