<svg xmlns="http://www.w3.org/2000/svg" width="23" height="23" viewBox="0 0 23 23">
  <path id="spotify" d="M11.5,8A11.5,11.5,0,1,0,23,19.5,11.5,11.5,0,0,0,11.5,8Zm4.67,16.921a.885.885,0,0,1-.5-.167c-2.894-1.744-6.26-1.818-9.585-1.136a2.994,2.994,0,0,1-.552.121.722.722,0,0,1-.733-.733.735.735,0,0,1,.631-.779c3.8-.839,7.679-.765,10.99,1.215a.784.784,0,0,1,.45.765.7.7,0,0,1-.7.714Zm1.247-3.042a1.145,1.145,0,0,1-.57-.195A15.027,15.027,0,0,0,5.782,20.321a1.91,1.91,0,0,1-.552.121.9.9,0,0,1-.9-.9.912.912,0,0,1,.719-.96,15.6,15.6,0,0,1,4.535-.631,16.232,16.232,0,0,1,8.208,2.11.967.967,0,0,1,.524.914A.9.9,0,0,1,17.417,21.879Zm1.438-3.533a1.066,1.066,0,0,1-.6-.181c-3.3-1.971-9.2-2.444-13.026-1.377a2.2,2.2,0,0,1-.6.121,1.07,1.07,0,0,1-1.08-1.094,1.1,1.1,0,0,1,.807-1.108A19.435,19.435,0,0,1,9.807,14a19.585,19.585,0,0,1,9.525,2.217,1.089,1.089,0,0,1,.6,1.048,1.074,1.074,0,0,1-1.076,1.08Z" transform="translate(0 -8)" fill="#fff"/>
</svg>
