<svg xmlns="http://www.w3.org/2000/svg" width="23.254" height="18.083" viewBox="0 0 23.254 18.083">
  <path id="home" d="M11.3,36.741l-7.443,6.13v6.616a.646.646,0,0,0,.646.646l4.524-.012a.646.646,0,0,0,.643-.646V45.612a.646.646,0,0,1,.646-.646H12.9a.646.646,0,0,1,.646.646v3.861a.646.646,0,0,0,.646.648l4.522.013a.646.646,0,0,0,.646-.646v-6.62l-7.441-6.125a.492.492,0,0,0-.618,0ZM23.06,40.908l-3.375-2.782V32.534a.484.484,0,0,0-.484-.484H16.94a.484.484,0,0,0-.484.484v2.931l-3.614-2.974a1.938,1.938,0,0,0-2.462,0L.161,40.908A.484.484,0,0,0,.1,41.59l1.029,1.251a.484.484,0,0,0,.683.066l9.5-7.821a.492.492,0,0,1,.618,0l9.5,7.821a.484.484,0,0,0,.682-.065l1.029-1.251a.484.484,0,0,0-.069-.683Z" transform="translate(0.015 -32.05)" fill="#fff"/>
</svg>
