<svg xmlns="http://www.w3.org/2000/svg" width="23" height="23.001" viewBox="0 0 23 23.001">
  <path id="tools" d="M22.461,17.775l-5.26-5.26a3.335,3.335,0,0,0-3.836-.624L8.577,7.1V4.312L2.827,0-.048,2.875l4.312,5.75H7.054l4.788,4.788a3.343,3.343,0,0,0,.624,3.836l5.26,5.26a1.67,1.67,0,0,0,2.367,0l2.367-2.367a1.678,1.678,0,0,0,0-2.367Zm-7.609-7.668A4.726,4.726,0,0,1,18.216,11.5l.871.871a6.358,6.358,0,0,0,1.967-1.325,6.46,6.46,0,0,0,1.7-6.14.538.538,0,0,0-.9-.247L18.513,8l-3.05-.508-.508-3.05L18.3,1.1a.542.542,0,0,0-.256-.907,6.471,6.471,0,0,0-6.136,1.7,6.366,6.366,0,0,0-1.851,4.654l3.688,3.688a4.893,4.893,0,0,1,1.11-.13ZM10.185,13.79,7.638,11.243.792,18.094a2.875,2.875,0,0,0,4.065,4.065l5.552-5.552a4.824,4.824,0,0,1-.225-2.816ZM2.827,21.2a1.078,1.078,0,1,1,1.078-1.078A1.081,1.081,0,0,1,2.827,21.2Z" transform="translate(0.05)" fill="#fff"/>
</svg>
